<svg xmlns="http://www.w3.org/2000/svg" preserveAspectRatio="xMidYMid" viewBox="0 0 32 44"><defs><style>.cls-2 { fill: #d1d5d7; }</style></defs><path d="M13 7c-.553 0-1 .448-1 1 0 .553.447 1 1 1 .553 0 1-.447 1-1 0-.552-.447-1-1-1m6 0c-.553 0-1 .448-1 1 0 .553.447 1 1 1 .553 0 1-.447 1-1 0-.552-.447-1-1-1m10 4c-.354 0-.686.072-1 .185v-.185h-.079c-.372-3.11-2.452-5.8-5.445-7.409l1.356-2.036-.016-.01c.107-.159.184-.339.184-.545 0-.552-.447-1-1-1-.347 0-.637.188-.816.455l-.016-.01-1.554 2.33c-1.421-.495-2.976-.775-4.614-.775s-3.193.28-4.614.775l-1.554-2.33-.016.01c-.179-.267-.469-.455-.816-.455-.553 0-1 .448-1 1 0 .206.077.386.184.545l-.016.01 1.357 2.036c-2.994 1.609-5.074 4.299-5.446 7.409h-.079v.185c-.315-.113-.648-.185-1-.185-1.656 0-3 1.344-3 3v14c0 1.657 1.344 3 3 3 .352 0 .685-.072 1-.184v3.184c0 1.103.896 2 2 2h2v5c0 1.657 1.344 3 3 3s3-1.343 3-3v-5h4v5c0 1.657 1.343 3 3 3s3-1.343 3-3v-5h2c1.103 0 2-.897 2-2v-3.184c.314.112.646.184 1 .184 1.657 0 3-1.343 3-3v-14c0-1.656-1.343-3-3-3m-25 17c0 .552-.447 1-1 1-.553 0-1-.448-1-1v-14c0-.552.447-1 1-1 .553 0 1 .448 1 1v14zm12-24c5.099 0 9.297 3.057 9.914 7h-19.828c.617-3.943 4.815-7 9.914-7m-4 37c0 .553-.447 1-1 1-.553 0-1-.447-1-1v-5h2v5zm10 0c0 .553-.447 1-1 1-.553 0-1-.447-1-1v-5h2v5zm4-7h-20v-21h20v21zm4-6c0 .552-.447 1-1 1-.553 0-1-.448-1-1v-14c0-.552.447-1 1-1 .553 0 1 .448 1 1v14z" id="path-1" class="cls-2" fill-rule="evenodd"/></svg>