<svg xmlns="http://www.w3.org/2000/svg" viewBox="0 0 44 44" enable-background="new 0 0 44 44"><path fill-rule="evenodd" clip-rule="evenodd" d="M40 4h-4v-3c0-.6-.4-1-1-1s-1 .4-1 1v3h-24v-3c0-.6-.4-1-1-1s-1 .4-1 1v3h-4c-2.2 0-4 1.8-4 4v32c0 2.2 1.8 4 4 4h36c2.2 0 4-1.8 4-4v-32c0-2.2-1.8-4-4-4zm2 36c0 1.1-.9 2-2 2h-36c-1.1 0-2-.9-2-2v-24h40v24zm0-26h-40v-6c0-1.1.9-2 2-2h4v3c0 .6.4 1 1 1s1-.4 1-1v-3h24v3c0 .6.4 1 1 1s1-.4 1-1v-3h4c1.1 0 2 .9 2 2v6z" enable-background="new"/><path fill-rule="evenodd" clip-rule="evenodd" fill="#44B6F0" d="M11 38h4v-4h-4v4zm0-7h4v-4h-4v4zm0-7h4v-4h-4v4zm6 7h4v-4h-4v4zm-12 7h4v-4h-4v4zm0-14h4v-4h-4v4zm0 7h4v-4h-4v4zm12 7h4v-4h-4v4zm0-14h4v-4h-4v4zm12 0h4v-4h-4v4zm6 7h4v-4h-4v4zm0-11v4h4v-4h-4zm-6 11h4v-4h-4v4zm-6-7h4v-4h-4v4zm0 14h4v-4h-4v4zm0-7h4v-4h-4v4z" enable-background="new"/></svg>