<?xml version="1.0" encoding="utf-8"?>
<!-- Generator: Adobe Illustrator 18.1.1, SVG Export Plug-In . SVG Version: 6.00 Build 0)  -->
<svg version="1.1" xmlns="http://www.w3.org/2000/svg" xmlns:xlink="http://www.w3.org/1999/xlink" x="0px" y="0px"
	 viewBox="0 0 44 44" enable-background="new 0 0 44 44" xml:space="preserve">
<g id="Shape_17_copy_1_" enable-background="new    ">
	<g id="Shape_17_copy">
		<g>
			<path fill-rule="evenodd" clip-rule="evenodd" d="M40,4h-4V1c0-0.6-0.4-1-1-1c-0.6,0-1,0.4-1,1v3H10V1c0-0.6-0.4-1-1-1
				C8.4,0,8,0.4,8,1v3H4C1.8,4,0,5.8,0,8v32c0,2.2,1.8,4,4,4h36c2.2,0,4-1.8,4-4V8C44,5.8,42.2,4,40,4z M42,40c0,1.1-0.9,2-2,2H4
				c-1.1,0-2-0.9-2-2V16h40V40z M42,14H2V8c0-1.1,0.9-2,2-2h4v3c0,0.6,0.4,1,1,1c0.6,0,1-0.4,1-1V6h24v3c0,0.6,0.4,1,1,1
				c0.6,0,1-0.4,1-1V6h4c1.1,0,2,0.9,2,2V14z"/>
		</g>
	</g>
</g>
<g id="Shape_17_1_" enable-background="new    ">
	<g id="Shape_17">
		<g>
			<path fill-rule="evenodd" clip-rule="evenodd" fill="#44B6F0" d="M11,38h4v-4h-4V38z M11,31h4v-4h-4V31z M11,24h4v-4h-4V24z
				 M17,31h4v-4h-4V31z M5,38h4v-4H5V38z M5,24h4v-4H5V24z M5,31h4v-4H5V31z M17,38h4v-4h-4V38z M17,24h4v-4h-4V24z M29,24h4v-4h-4
				V24z M35,31h4v-4h-4V31z M35,20v4h4v-4H35z M29,31h4v-4h-4V31z M23,24h4v-4h-4V24z M23,38h4v-4h-4V38z M23,31h4v-4h-4V31z"/>
		</g>
	</g>
</g>
</svg>
