<svg xmlns="http://www.w3.org/2000/svg" viewBox="0 0 49 48" enable-background="new 0 0 49 48"><path d="M43.5 24c-1.3 0-2.6.3-3.7.9l1.5-9.9c.6-3.8-.5-7.6-3-10.4-2.4-2.9-6-4.6-9.8-4.6h-8c-3.8 0-7.4 1.7-9.9 4.5-2.5 2.9-3.6 6.7-3 10.4l1.5 9.9c-1-.5-2.3-.8-3.6-.8-2.8 0-5 2.2-5 5 0 2 1.2 3.8 3.1 4.6.6.2.9.8.9 1.4v4c0 3.9 3.1 7 7 7v1c0 .6.4 1 1 1s1-.4 1-1v-1h22v1c0 .6.4 1 1 1s1-.4 1-1v-1c3.9 0 7-3.1 7-7v-4c0-.6.4-1.2.9-1.4 1.9-.8 3.1-2.6 3.1-4.6 0-2.8-2.2-5-5-5zm-31.4-18.2c2.1-2.4 5.2-3.8 8.4-3.8h8c3.2 0 6.3 1.4 8.3 3.8 2.1 2.4 3 5.7 2.5 8.8l-1.8 12c-1.3 1.4-2 3.3-2 5.3v1.5c-1.8-.6-5.2-1.5-11-1.5s-9.2.8-11 1.5v-1.4c0-2-.8-3.9-2-5.3l-1.9-12c-.5-3.2.4-6.4 2.5-8.9zm32.6 26c-1.3.5-2.2 1.8-2.2 3.2v4c0 2.8-2.2 5-5 5h-26c-2.8 0-5-2.2-5-5v-4c0-1.4-.8-2.7-2.2-3.2-1.1-.5-1.8-1.6-1.8-2.8 0-1.7 1.3-3 3-3 3.3 0 6 2.7 6 6v3c0 .4.2.7.5.9.3.2.7.2 1 0 0 0 3-1.8 11.5-1.8s11.4 1.8 11.4 1.8c.3.2.7.2 1 0 .3-.2.5-.5.5-.9v-3c0-3.3 2.7-6 6-6 1.7 0 3 1.3 3 3 .1 1.2-.6 2.3-1.7 2.8z" enable-background="new"/><path fill="#44B6F0" d="M29.9 18l1.3-1.3c.4-.4.4-1 0-1.4-.4-.4-1-.4-1.4 0l-1.5 1.5c-.5-1.6-2-2.8-3.8-2.8-1.8 0-3.3 1.2-3.8 2.8l-1.5-1.5c-.4-.4-1-.4-1.4 0-.4.4-.4 1 0 1.4l1.3 1.3-1.3 1.3c-.4.4-.4 1 0 1.4.2.2.5.3.7.3.3 0 .5-.1.7-.3l1.5-1.5c.5 1.6 2 2.8 3.8 2.8 1.8 0 3.3-1.2 3.8-2.8l1.5 1.5c.2.2.5.3.7.3.3 0 .5-.1.7-.3.4-.4.4-1 0-1.4l-1.3-1.3zm-5.4 2c-1.1 0-2-.9-2-2s.9-2 2-2 2 .9 2 2-.9 2-2 2z" enable-background="new"/></svg>