<?xml version="1.0" encoding="utf-8"?>
<!-- Generator: Adobe Illustrator 18.1.1, SVG Export Plug-In . SVG Version: 6.00 Build 0)  -->
<svg version="1.1" xmlns="http://www.w3.org/2000/svg" xmlns:xlink="http://www.w3.org/1999/xlink" x="0px" y="0px"
	 viewBox="0 0 49 48" enable-background="new 0 0 49 48" xml:space="preserve">
<g id="Shape_27_1_" enable-background="new    ">
	<g id="Shape_27">
		<g>
			<path d="M43.5,24c-1.3,0-2.6,0.3-3.7,0.9l1.5-9.9c0.6-3.8-0.5-7.6-3-10.4C35.9,1.7,32.3,0,28.5,0h-8c-3.8,0-7.4,1.7-9.9,4.5
				c-2.5,2.9-3.6,6.7-3,10.4l1.5,9.9C8.1,24.3,6.8,24,5.5,24c-2.8,0-5,2.2-5,5c0,2,1.2,3.8,3.1,4.6c0.6,0.2,0.9,0.8,0.9,1.4v4
				c0,3.9,3.1,7,7,7v1c0,0.6,0.4,1,1,1c0.6,0,1-0.4,1-1v-1h22v1c0,0.6,0.4,1,1,1c0.6,0,1-0.4,1-1v-1c3.9,0,7-3.1,7-7v-4
				c0-0.6,0.4-1.2,0.9-1.4c1.9-0.8,3.1-2.6,3.1-4.6C48.5,26.2,46.3,24,43.5,24z M12.1,5.8C14.2,3.4,17.3,2,20.5,2h8
				c3.2,0,6.3,1.4,8.3,3.8c2.1,2.4,3,5.7,2.5,8.8l-1.8,12c-1.3,1.4-2,3.3-2,5.3v1.5c-1.8-0.6-5.2-1.5-11-1.5c-5.8,0-9.2,0.8-11,1.5
				V32c0-2-0.8-3.9-2-5.3l-1.9-12C9.1,11.5,10,8.3,12.1,5.8z M44.7,31.8c-1.3,0.5-2.2,1.8-2.2,3.2v4c0,2.8-2.2,5-5,5h-26
				c-2.8,0-5-2.2-5-5v-4c0-1.4-0.8-2.7-2.2-3.2c-1.1-0.5-1.8-1.6-1.8-2.8c0-1.7,1.3-3,3-3c3.3,0,6,2.7,6,6v3c0,0.4,0.2,0.7,0.5,0.9
				c0.3,0.2,0.7,0.2,1,0c0,0,3-1.8,11.5-1.8c8.5,0,11.4,1.8,11.4,1.8c0.3,0.2,0.7,0.2,1,0c0.3-0.2,0.5-0.5,0.5-0.9v-3
				c0-3.3,2.7-6,6-6c1.7,0,3,1.3,3,3C46.5,30.2,45.8,31.3,44.7,31.8z"/>
		</g>
	</g>
</g>
<g id="Color_Fill_4_1_" enable-background="new    ">
	<g id="Color_Fill_4">
		<g>
			<path fill="#44B6F0" d="M29.9,18l1.3-1.3c0.4-0.4,0.4-1,0-1.4c-0.4-0.4-1-0.4-1.4,0l-1.5,1.5c-0.5-1.6-2-2.8-3.8-2.8
				c-1.8,0-3.3,1.2-3.8,2.8l-1.5-1.5c-0.4-0.4-1-0.4-1.4,0c-0.4,0.4-0.4,1,0,1.4l1.3,1.3l-1.3,1.3c-0.4,0.4-0.4,1,0,1.4
				c0.2,0.2,0.5,0.3,0.7,0.3c0.3,0,0.5-0.1,0.7-0.3l1.5-1.5c0.5,1.6,2,2.8,3.8,2.8c1.8,0,3.3-1.2,3.8-2.8l1.5,1.5
				c0.2,0.2,0.5,0.3,0.7,0.3c0.3,0,0.5-0.1,0.7-0.3c0.4-0.4,0.4-1,0-1.4L29.9,18z M24.5,20c-1.1,0-2-0.9-2-2c0-1.1,0.9-2,2-2
				c1.1,0,2,0.9,2,2C26.5,19.1,25.6,20,24.5,20z"/>
		</g>
	</g>
</g>
</svg>
