<svg xmlns="http://www.w3.org/2000/svg" preserveAspectRatio="xMidYMid" width="63" height="30" viewBox="0 0 63 30"><defs><style>.cls-2 { fill: #9ba9b0; }</style></defs><path d="M47.918 29.875c-8.249 0-14.937-6.688-14.937-14.938 0-8.249 6.688-14.937 14.937-14.937 8.25 0 14.938 6.688 14.938 14.937 0 8.25-6.688 14.938-14.938 14.938zm0-27.875c-4.172 0-7.879 1.994-10.246 5.07 1.197.511 2.421.76 3.833.76 3.083 0 6.735-1.577 7.814-3.374.178-.295.493-.478.837-.485.331-.005.667.162.856.45 2.002 3.043 4.13 4.002 7.599 3.423l.108-.011c-2.316-3.509-6.29-5.833-10.801-5.833zm11.564 7.766c-.174.009-.344.017-.54.05-.724.121-1.411.182-2.064.182-2.752 0-4.91-1.087-6.747-3.385-2.046 2.013-5.793 3.217-8.626 3.217-1.79 0-3.338-.325-4.871-1.021l-.076-.055c-1.005 1.839-1.577 3.945-1.577 6.183 0 7.133 5.804 12.938 12.937 12.938 7.134 0 12.938-5.805 12.938-12.938 0-1.846-.396-3.6-1.096-5.191l-.278.02zm-11.427 14.234c-2.768 0-5.334-1.278-6.864-3.419l1.627-1.162c1.155 1.616 3.113 2.581 5.237 2.581s4.082-.965 5.237-2.581l1.627 1.162c-1.529 2.141-4.095 3.419-6.864 3.419zm4.01-8.19c-1.094 0-1.981-.857-1.981-1.914 0-1.058.887-1.916 1.981-1.916s1.981.858 1.981 1.916c0 1.057-.887 1.914-1.981 1.914zm-9.004 0c-1.094 0-1.98-.857-1.98-1.914 0-1.058.886-1.916 1.98-1.916 1.095 0 1.982.858 1.982 1.916 0 1.057-.887 1.914-1.982 1.914zm-23.919 0c-1.095 0-1.981-.857-1.981-1.914 0-1.058.886-1.916 1.981-1.916 1.094 0 1.981.858 1.981 1.916 0 1.057-.887 1.914-1.981 1.914zm9.003 0c-1.094 0-1.981-.857-1.981-1.914 0-1.058.887-1.916 1.981-1.916s1.981.858 1.981 1.916c0 1.057-.887 1.914-1.981 1.914zm-4.135 8.19c-2.768 0-5.334-1.278-6.864-3.419l1.627-1.162c1.155 1.616 3.113 2.581 5.237 2.581s4.082-.965 5.238-2.581l1.626 1.162c-1.529 2.141-4.095 3.419-6.864 3.419zm-.011-22c-4.181 0-7.894 2.002-10.261 5.088.923.368 2.343.797 3.774.666 2.049-.186 4.871-1.81 5.786-2.42h.001c.11-.073.232-.123.36-.148l.244-.001h.139c.129.025.252.075.363.148l.002.001c.033.022 3.325 2.196 5.786 2.42.55.05.955.536.906 1.086-.048.52-.484.91-.995.91l-.092-.004c-2.322-.211-5.019-1.707-6.159-2.399-1.141.692-3.838 2.188-6.16 2.399-.239.022-.478.032-.713.032-1.777 0-3.4-.568-4.362-.988-.992 1.83-1.557 3.924-1.557 6.147 0 7.133 5.804 12.938 12.938 12.938 3.685 0 7.007-1.557 9.366-4.038.362.583.75 1.146 1.177 1.68-2.701 2.693-6.428 4.358-10.543 4.358-7.48 0-13.657-5.503-14.749-12.678-.35.487-.76.969-1.245 1.414-1.322 1.214-3.171 1.512-4.667 1.512-1.381 0-2.463-.254-2.554-.276-.287-.07-.529-.262-.66-.526-.132-.264-.14-.573-.022-.844.344-.794 2.135-4.812 3.559-5.799 1.2-.831 4.636-1.639 6.009-1.939.383-1.308.949-2.536 1.653-3.67l.027-.08.088-.101c2.654-4.138 7.28-6.888 12.561-6.888 4.115 0 7.842 1.665 10.543 4.358-.427.534-.815 1.098-1.177 1.68-2.359-2.481-5.681-4.038-9.366-4.038zm-19.198 12.322c-.515.357-1.498 2.051-2.322 3.766 1.309.107 3.125.012 4.173-.95 1.673-1.535 2.287-3.672 2.42-4.208-1.741.421-3.688.988-4.271 1.392z" id="path-1" class="cls-2" fill-rule="evenodd"/></svg>