<svg xmlns="http://www.w3.org/2000/svg" preserveAspectRatio="xMidYMid" width="36" height="55" viewBox="0 0 36 55"><defs><style>.cls-2 { fill: #9ba9b0; }</style></defs><path d="M36 37c0 9.925-8.075 18-18 18s-18-8.075-18-18c0-4.936 2.019-9.392 5.25-12.646v-23.353c0-.427.27-.806.673-.945.4-.14.849-.009 1.113.327l15.01 19.103c7.979 1.843 13.954 8.983 13.954 17.514zm-28.75-33.107v19.855l13.237-3.009-13.237-16.846zm15.839 17.959c-.138.236-.345.426-.617.488l-16 3.637-.043.004c-2.736 2.873-4.429 6.748-4.429 11.019 0 8.822 7.178 16 16 16s16-7.178 16-16c0-7.041-4.58-13.016-10.911-15.148zm5.16 11.898c-.186 0-.373-.052-.541-.159l-7.375-4.75c-.464-.299-.598-.918-.299-1.382.299-.465.918-.598 1.382-.3l7.375 4.75c.465.299.599.918.3 1.382-.192.297-.513.459-.842.459zm-14.624 4.04c-1.095 0-1.981-.857-1.981-1.914 0-1.059.886-1.916 1.981-1.916 1.095 0 1.981.857 1.981 1.916 0 1.057-.886 1.914-1.981 1.914zm.924-7.51l-5.875 2.75c-.137.065-.281.095-.424.095-.376 0-.736-.213-.906-.576-.234-.5-.018-1.096.482-1.329l5.875-2.75c.501-.235 1.095-.019 1.33.481.234.5.018 1.096-.482 1.329zm5.97 5.596c0-1.059.886-1.916 1.981-1.916 1.095 0 1.981.857 1.981 1.916 0 1.057-.886 1.914-1.981 1.914-1.095 0-1.981-.857-1.981-1.914zm-10.828 4.124h16.618c.552 0 1 .447 1 1 0 4.349-4.35 8.163-9.309 8.163s-9.309-3.814-9.309-8.163c0-.553.448-1 1-1zm8.309 7.163c3.492 0 6.599-2.316 7.203-5.163h-14.406c.604 2.847 3.711 5.163 7.203 5.163z" id="path-1" class="cls-2" fill-rule="evenodd"/></svg>