<?xml version="1.0" encoding="utf-8"?>
<!-- Generator: Adobe Illustrator 18.1.1, SVG Export Plug-In . SVG Version: 6.00 Build 0)  -->
<svg version="1.1" xmlns="http://www.w3.org/2000/svg" xmlns:xlink="http://www.w3.org/1999/xlink" x="0px" y="0px"
	 viewBox="0 0 45 44" enable-background="new 0 0 45 44" xml:space="preserve">
<g id="Shape_20_1_" enable-background="new    ">
	<g id="Shape_20">
		<g>
			<path fill-rule="evenodd" clip-rule="evenodd" d="M42.2,4h-4.8V2.7c0-0.6-0.2-1.1-0.5-1.5C36.8,0.5,36.2,0,35.5,0h-0.8H11.3h-0.8
				C9.7,0,9.1,0.5,9,1.2c-0.3,0.4-0.5,1-0.5,1.5V4H3.7C2.2,4,1,5.2,1,6.7v5.6c0,4.2,3.4,7.6,7.6,7.6h0.1c0.6,6.6,4.8,12,11.4,12.9
				V38h-3.9c-1.5,0-2.7,1.2-2.7,2.8v2.6c0,0.4,0.3,0.7,0.7,0.7h17.9c0.4,0,0.7-0.3,0.7-0.7v-2.6c0-1.5-1.2-2.8-2.7-2.8H26v-5.2
				c7.3-1,10.7-6.2,11.4-12.9h0.1c4.2,0,7.6-3.4,7.6-7.6V6.7C45,5.2,43.7,4,42.2,4z M9,18H8.6H8.5C5.5,18,3,15.4,3,12.4V6.7
				C3,6.3,3.3,6,3.7,6h4.8H9V18z M25.7,30.9L24,31.1v1.7V38v2h2h3.9c0.4,0,0.8,0.3,0.8,0.8V42H15.4v-1.3c0-0.4,0.3-0.8,0.8-0.8H20h2
				v-2v-5.2v-1.7l-1.7-0.2c-4.7-0.7-8.1-4-9.3-8.9h0c0,0,0-2,0-3V2.2C11.1,2,11.2,2,11.3,2h23.4c0.1,0,0.2,0,0.3,0.2V19c0,1,0,3,0,3
				h0C33.9,27.1,30.8,30.1,25.7,30.9z M43,12.4c0,3.1-2.5,5.7-5.6,5.7h-0.1H37V6h0.4h4.8C42.6,6,43,6.3,43,6.7V12.4z"/>
		</g>
	</g>
</g>
<g id="Color_Fill_2_1_" enable-background="new    ">
	<g id="Color_Fill_2">
		<g>
			<polygon fill-rule="evenodd" clip-rule="evenodd" fill="#44B6F0" points="30,12.1 24.9,12.1 23,7 21.1,12.1 16,12.1 20.1,15.3 
				18.2,21 23,17.5 27.8,21 25.8,15.3 			"/>
		</g>
	</g>
</g>
</svg>
