<svg xmlns="http://www.w3.org/2000/svg" viewBox="0 0 45 44" enable-background="new 0 0 45 44"><path fill-rule="evenodd" clip-rule="evenodd" d="M42.2 4h-4.8v-1.3c0-.6-.2-1.1-.5-1.5-.1-.7-.7-1.2-1.4-1.2h-25c-.8 0-1.4.5-1.5 1.2-.3.4-.5 1-.5 1.5v1.3h-4.8c-1.5 0-2.7 1.2-2.7 2.7v5.6c0 4.2 3.4 7.6 7.6 7.6h.1c.6 6.6 4.8 12 11.4 12.9v5.2h-3.9c-1.5 0-2.7 1.2-2.7 2.8v2.6c0 .4.3.7.7.7h17.9c.4 0 .7-.3.7-.7v-2.6c0-1.5-1.2-2.8-2.7-2.8h-4.1v-5.2c7.3-1 10.7-6.2 11.4-12.9h.1c4.2 0 7.6-3.4 7.6-7.6v-5.6c-.1-1.5-1.4-2.7-2.9-2.7zm-33.2 14h-.5c-3 0-5.5-2.6-5.5-5.6v-5.7c0-.4.3-.7.7-.7h5.3v12zm16.7 12.9l-1.7.2v8.9h5.9c.4 0 .8.3.8.8v1.2h-15.3v-1.3c0-.4.3-.8.8-.8h5.8v-8.9l-1.7-.2c-4.7-.7-8.1-4-9.3-8.9v-19.7c.1-.2.2-.2.3-.2h23.4c.1 0 .2 0 .3.2v19.8c-1.1 5.1-4.2 8.1-9.3 8.9zm17.3-18.5c0 3.1-2.5 5.7-5.6 5.7h-.4v-12.1h5.2c.4 0 .8.3.8.7v5.7z" enable-background="new"/><path fill-rule="evenodd" clip-rule="evenodd" fill="#44B6F0" d="M30 12.1h-5.1l-1.9-5.1-1.9 5.1h-5.1l4.1 3.2-1.9 5.7 4.8-3.5 4.8 3.5-2-5.7z" enable-background="new"/></svg>