<svg xmlns="http://www.w3.org/2000/svg" preserveAspectRatio="xMidYMid" width="45" height="42" viewBox="0 0 45 42"><defs><style>.cls-2 { fill: #9ba9b0; }</style></defs><path d="M35.645 16.942c1.615 2.59 2.492 5.599 2.492 8.709 0 3.037-.837 5.872-2.266 8.308l.013.001c1.334 0 2.583-.462 3.337-1.237.188-.193.494-.3.808-.3.162 0 .327.028.479.088.443.172.624.553.418.878-1.614 2.533-4.568 4.119-8.238 4.47-2.829 2.538-6.532 4.092-10.594 4.092-4.062 0-7.765-1.554-10.594-4.091-3.675-.349-6.633-1.935-8.249-4.471-.207-.326-.025-.706.419-.879.15-.058.313-.086.474-.086.316 0 .624.106.813.3.753.775 1.999 1.236 3.334 1.236l.025-.001c-1.429-2.437-2.265-5.272-2.265-8.308 0-3.105.882-6.117 2.497-8.709-4.767-.337-8.537-4.009-8.537-8.416 0-.552.447-1 1-1 .552 0 1 .448 1 1 0 3.522 3.252 6.472 7.249 6.472h.349v-3.976c0-6.273 5.56-11.036 12.464-11.036 6.904 0 12.521 4.763 12.521 11.036v3.976h.333c3.998 0 7.25-2.95 7.25-6.472 0-.552.447-1 1-1 .552 0 1 .448 1 1 0 4.405-3.767 8.076-8.532 8.416zm-13.551 23.009c2.678 0 5.175-.781 7.307-2.111-2.863-.285-5.532-1.255-7.313-2.685-1.78 1.429-4.444 2.398-7.303 2.683 2.132 1.331 4.63 2.113 7.309 2.113zm-9.772-4.051c.248.012.49.035.745.035 2.994 0 5.971-.897 7.769-2.34l1.252-1.004 1.252 1.005c1.797 1.442 4.774 2.339 7.768 2.339.26 0 .506-.023.758-.036.238-.235.462-.484.683-.735-1.632-.855-2.7-2.319-2.7-4.028 0-1.488-2.322-2.158-3.971-2.158-.317 0-1.123.59-1.556.906-.415.304-.845.618-1.298.858l-.936.497-.937-.497c-.453-.24-.884-.555-1.299-.859-.433-.316-1.237-.905-1.552-.905-1.649 0-3.971.67-3.971 2.158 0 1.706-1.066 3.168-2.695 4.024.223.253.448.503.688.74zm20.289-20.902v-3.054h-21.013v3.054h21.013zm-8.476 6.409c0 1.93 1.552 3.501 3.458 3.501 1.907 0 3.459-1.571 3.459-3.501 0-1.929-1.552-3.499-3.459-3.499-1.906 0-3.458 1.57-3.458 3.499zm-2.062-19.421c-5.452 0-9.844 3.366-10.41 8.014h20.882c-.573-4.648-5.02-8.014-10.472-8.014zm11.176 14.989h-2.448c1.359 1.001 2.251 2.606 2.251 4.432 0 3.038-2.443 5.501-5.459 5.501-3.015 0-5.458-2.463-5.458-5.501 0-1.826.893-3.431 2.251-4.432h-13.441c-1.867 2.486-2.894 5.527-2.894 8.676 0 2.914.864 5.623 2.339 7.886 1.158-.498 1.939-1.384 1.939-2.401 0-2.731 3.003-4.158 5.971-4.158 1.406 0 2.742 1.443 3.788 1.997 1.045-.554 2.382-1.997 3.79-1.997 2.967 0 5.971 1.427 5.971 4.158 0 1.02.784 1.908 1.946 2.404 1.477-2.263 2.342-4.974 2.342-7.889 0-3.154-1.021-6.191-2.888-8.676zm-17.14 6.852c-1.094 0-1.981-.858-1.981-1.915 0-1.058.887-1.916 1.981-1.916s1.981.858 1.981 1.916c0 1.057-.887 1.915-1.981 1.915z" id="path-1" class="cls-2" fill-rule="evenodd"/></svg>