<?xml version="1.0" encoding="utf-8"?>
<!-- Generator: Adobe Illustrator 18.1.1, SVG Export Plug-In . SVG Version: 6.00 Build 0)  -->
<svg version="1.1" xmlns="http://www.w3.org/2000/svg" xmlns:xlink="http://www.w3.org/1999/xlink" x="0px" y="0px"
	 viewBox="0 0 47 47" enable-background="new 0 0 47 47" xml:space="preserve">
<g id="Shape_23_1_" enable-background="new    ">
	<g id="Shape_23">
		<g>
			<path fill-rule="evenodd" clip-rule="evenodd" fill="#44B6F0" d="M26.8,18.4l-5.1-5.1l1.5-1.5c0.1,0,0.1,0,0.2,0
				c0.7,0,1.2-0.5,1.2-1.2c0-0.7-0.5-1.2-1.2-1.2c-0.7,0-1.2,0.5-1.2,1.2c0,0.1,0,0.1,0,0.2l-1.5,1.5l-5.1-5.1c-0.3-0.3-0.8-0.3-1,0
				C12.9,8.8,12,11,12,13.3c0,1.6,0.4,3.1,1.2,4.4c-1,0.3-1.7,1.2-1.7,2.3c0,1.3,1.1,2.4,2.4,2.4c1.1,0,2-0.7,2.3-1.7
				c1.3,0.8,2.8,1.2,4.4,1.2c2.3,0,4.5-0.9,6.1-2.5C27.1,19.2,27.1,18.7,26.8,18.4z M13.9,21c-0.5,0-1-0.4-1-1c0-0.5,0.4-1,1-1
				c0.5,0,1,0.4,1,1C14.9,20.6,14.5,21,13.9,21z M20.7,20.5c-1.9,0-3.7-0.8-5.1-2.1c-1.4-1.4-2.1-3.2-2.1-5.1c0-1.7,0.6-3.3,1.6-4.6
				l10.2,10.2C23.9,20,22.4,20.5,20.7,20.5z"/>
		</g>
	</g>
</g>
<g id="Shape_25_1_" enable-background="new    ">
	<g id="Shape_25">
		<g>
			<path fill-rule="evenodd" clip-rule="evenodd" d="M46.6,31.5l-5.7-9.2l5.7-9.7l0,0c0.1-0.2,0.2-0.3,0.2-0.5c0-0.6-0.4-1-1-1H36V1
				c0-0.6-0.4-1-1-1H2C1.4,0,1,0.4,1,2v43.9C1,45.4,1.4,47,2,47s1-0.4,1-1V29h27v3c0,0.6,0.4,1,1,1h14.8c0.6,0,1-0.4,1-1
				C46.8,31.8,46.7,31.6,46.6,31.5L46.6,31.5z M3,27V2h31v25H3z M32,31v-2h3c0.6,0,1-0.4,1-1V13h8l-5.1,8.7l0,0
				c-0.1,0.2-0.2,0.3-0.2,0.5c0,0.2,0.1,0.4,0.2,0.5l0,0L44,31H32z"/>
		</g>
	</g>
</g>
</svg>
