<svg xmlns="http://www.w3.org/2000/svg" viewBox="0 0 47 47" enable-background="new 0 0 47 47"><path fill-rule="evenodd" clip-rule="evenodd" fill="#44B6F0" d="M26.8 18.4l-5.1-5.1 1.5-1.5h.2c.7 0 1.2-.5 1.2-1.2s-.5-1.2-1.2-1.2-1.2.5-1.2 1.2v.2l-1.5 1.5-5.1-5.1c-.3-.3-.8-.3-1 0-1.7 1.6-2.6 3.8-2.6 6.1 0 1.6.4 3.1 1.2 4.4-1 .3-1.7 1.2-1.7 2.3 0 1.3 1.1 2.4 2.4 2.4 1.1 0 2-.7 2.3-1.7 1.3.8 2.8 1.2 4.4 1.2 2.3 0 4.5-.9 6.1-2.5.4-.2.4-.7.1-1zm-12.9 2.6c-.5 0-1-.4-1-1 0-.5.4-1 1-1 .5 0 1 .4 1 1s-.4 1-1 1zm6.8-.5c-1.9 0-3.7-.8-5.1-2.1-1.4-1.4-2.1-3.2-2.1-5.1 0-1.7.6-3.3 1.6-4.6l10.2 10.2c-1.4 1.1-2.9 1.6-4.6 1.6z" enable-background="new"/><path fill-rule="evenodd" clip-rule="evenodd" d="M46.6 31.5l-5.7-9.2 5.7-9.7c.1-.2.2-.3.2-.5 0-.6-.4-1-1-1h-9.8v-10.1c0-.6-.4-1-1-1h-33c-.6 0-1 .4-1 2v43.9c0-.5.4 1.1 1 1.1s1-.4 1-1v-17h27v3c0 .6.4 1 1 1h14.8c.6 0 1-.4 1-1 0-.2-.1-.4-.2-.5zm-43.6-4.5v-25h31v25h-31zm29 4v-2h3c.6 0 1-.4 1-1v-15h8l-5.1 8.7c-.1.2-.2.3-.2.5s.1.4.2.5l5.1 8.3h-12z" enable-background="new"/></svg>