<svg xmlns="http://www.w3.org/2000/svg" viewBox="0 0 45 44" enable-background="new 0 0 45 44"><path fill="#44B6F0" d="M22.2 19.4c0-2.3-1.8-3.5-3.9-3.5-1.9 0-3.3 1.1-4 2.4l1.6 1.1c.4-.8 1.2-1.4 2.2-1.4 1 0 1.8.6 1.8 1.7 0 2.4-5.9 3.1-5.9 7.4 0 .3 0 .7.1 1.1h7.9v-2h-5.2c.1-2.5 5.4-3 5.4-6.8zm8.8 3.6v-7h-2.9l-5.1 7v1.9h6v3h2v-3h2v-2h-2zm-2 0h-3.2l3.3-4.8-.1 4.8z" enable-background="new"/><path fill-rule="evenodd" clip-rule="evenodd" d="M22.5 2c6.5 0 12.3 3.1 16 8h-8c-.6 0-1 .4-1 1s.4 1 1 1h10c.6 0 1-.4 1-1v-10c0-.6-.4-1-1-1s-1 .4-1 1v7.1c-4-4.9-10.1-8.1-17-8.1-12.1 0-22 9.9-22 22 0 .6.4 1 1 1s1-.4 1-1c0-11 9-20 20-20zm21 19c-.6 0-1 .4-1 1 0 11-9 20-20 20-6.5 0-12.3-3.1-16-8h8c.6 0 1-.4 1-1s-.4-1-1-1h-10c-.6 0-1 .4-1 1v10c0 .6.4 1 1 1s1-.4 1-1v-7.1c4 4.9 10.1 8.1 17 8.1 12.1 0 22-9.8 22-22 0-.6-.4-1-1-1z" enable-background="new"/></svg>