<svg xmlns="http://www.w3.org/2000/svg" preserveAspectRatio="xMidYMid" width="38" height="41" viewBox="0 0 38 41"><defs><style>.cls-2 { fill: #9ba9b0; }</style></defs><path d="M37 24h-3v1.824c0 8.919-5.932 15.176-14.452 15.176h-.375c-8.767 0-15.173-6.407-15.173-15.176v-1.824h-3c-.552 0-1-.447-1-1v-6c0-.553.448-1 1-1h3v-10.238c0-3.607 3.297-5.762 6.484-5.762h17.752c3.394 0 5.764 2.369 5.764 5.762v10.238h3c.552 0 1 .447 1 1v6c0 .553-.448 1-1 1zm-33-6h-2v4h2v-4zm28-12.238c0-2.285-1.478-3.762-3.764-3.762h-17.752c-2.156 0-4.484 1.438-4.484 3.762v1.924c.27.757.959 1.314 1.75 1.314 1.016 0 1.875-.916 1.875-2 0-.553.42-1 .937-1 .518 0 .938.447.938 1 0 1.084.859 2 1.875 2s1.875-.916 1.875-2c0-.553.42-1 .937-1 .518 0 .938.447.938 1 0 1.084.859 2 1.875 2s1.875-.916 1.875-2c0-.553.419-1 .937-1 .519 0 .938.447.938 1 0 1.084.859 2 1.875 2s1.875-.916 1.875-2c0-.553.419-1 .937-1 .519 0 .938.447.938 1 0 1.084.859 2 1.875 2 .791 0 1.48-.557 1.75-1.314v-1.924zm0 4.754c-.525.299-1.115.484-1.75.484-1.119 0-2.125-.525-2.813-1.357-.687.832-1.693 1.357-2.812 1.357-1.119 0-2.125-.525-2.813-1.357-.687.832-1.693 1.357-2.812 1.357-1.119 0-2.125-.525-2.813-1.357-.687.832-1.693 1.357-2.812 1.357-1.119 0-2.125-.525-2.813-1.357-.687.832-1.693 1.357-2.812 1.357-.635 0-1.225-.185-1.75-.484v15.308c0 7.684 5.49 13.176 13.173 13.176h.375c7.417 0 12.452-5.359 12.452-13.176v-15.308zm4 7.484h-2v4h2v-4zm-9 14c-.256 0-.512-.098-.707-.293l-.293-.255v.882c0 .553-.448 1-1 1s-1-.447-1-1v-2.147c-.574-.286-1.237-.561-2-.774v.587c0 .553-.448 1-1 1s-1-.447-1-1v-.928c-.329-.03-.649-.072-1-.072-.35 0-.672.037-1 .067v.933c0 .553-.448 1-1 1s-1-.447-1-1v-.575c-.754.214-1.429.483-2 .767v2.142c0 .553-.448 1-1 1s-1-.447-1-1v-.877l-.295.253c-.392.387-1.025.384-1.414-.007-.388-.391-.388-1.02.002-1.41.055-.056.665-.632 1.707-1.284v-.675c0-.553.448-1 1-1 .435 0 .796.282.933.671.616-.255 1.313-.478 2.067-.654v-1.351c0-.553.448-1 1-1s1 .447 1 1v1.054c.328-.025.654-.054 1-.054.351 0 .667.046 1 .071v-1.071c0-.553.448-1 1-1s1 .447 1 1v1.368c.76.178 1.439.416 2.059.672.127-.406.493-.706.941-.706.552 0 1 .447 1 1v.687c1.05.648 1.651 1.216 1.707 1.272.391.391.391 1.023 0 1.414-.195.195-.451.293-.707.293zm-.567-9.568c-.196.195-.452.293-.707.293-.256 0-.512-.098-.707-.293l-1.156-1.156-1.156 1.156c-.195.195-.451.293-.707.293-.256 0-.512-.098-.707-.293-.391-.391-.391-1.024 0-1.414l1.156-1.156-1.156-1.155c-.391-.39-.391-1.023 0-1.414s1.023-.391 1.414 0l1.156 1.155 1.156-1.155c.39-.391 1.023-.391 1.414 0 .39.391.39 1.024 0 1.414l-1.156 1.155 1.156 1.156c.39.39.39 1.023 0 1.414zm-9.726 0c-.195.195-.451.293-.707.293-.256 0-.512-.098-.707-.293l-1.156-1.156-1.156 1.156c-.195.195-.451.293-.707.293-.255 0-.511-.098-.707-.293-.39-.391-.39-1.024 0-1.414l1.156-1.156-1.156-1.155c-.39-.39-.39-1.023 0-1.414.391-.391 1.024-.391 1.414 0l1.156 1.155 1.156-1.155c.391-.391 1.023-.391 1.414 0s.391 1.024 0 1.414l-1.156 1.155 1.156 1.156c.391.39.391 1.023 0 1.414z" id="path-1" class="cls-2" fill-rule="evenodd"/></svg>