<svg xmlns="http://www.w3.org/2000/svg" preserveAspectRatio="xMidYMid" width="38" height="48" viewBox="0 0 38 48"><defs><style>.cls-2 { fill: #d1d5d7; }</style></defs><path d="M37.913 35.408c-3.995 8.944-7.156 12.592-10.913 12.592-1.461 0-2.754-.563-4.006-1.106-1.059-.459-2.059-.894-2.994-.894-.776 0-1.576.365-2.503.788-1.245.567-2.657 1.212-4.497 1.212-2.235 0-4.518-1.657-6.976-5.067-.115-.161-.273-.36-.464-.599-1.664-2.093-5.56-6.993-5.56-15.334 0-1.873.622-4.681 1.448-6.532 3.117-6.999 7.451-8.468 10.539-8.468 1.979.003 3.409.6 4.671 1.127 1.121.469 2.09.873 3.342.873.564 0 1.733-.45 2.765-.848 1.47-.566 2.992-1.152 4.235-1.152 3.441 0 6.354 1.594 9.741 5.328.191.21.282.492.254.774-.029.283-.177.539-.406.707-3.102 2.259-4.486 4.448-4.486 7.093 0 3.458 1.573 5.848 5.425 8.249.425.264.589.801.385 1.257zm-7.81-9.506c0-3.789 2.308-6.335 4.411-8.025-2.668-2.741-4.896-3.877-7.514-3.877-.871 0-2.276.541-3.517 1.019-1.367.526-2.548.981-3.483.981-1.652 0-2.903-.523-4.113-1.027-1.195-.499-2.323-.971-3.888-.973-3.59 0-6.603 2.518-8.725 7.282-.714 1.603-1.274 4.114-1.274 5.718 0 7.643 3.592 12.16 5.126 14.089.214.269.392.494.521.675 1.998 2.771 3.849 4.236 5.353 4.236 1.405 0 2.555-.524 3.667-1.032 1.044-.476 2.122-.968 3.333-.968 1.352 0 2.592.539 3.791 1.06 1.113.483 2.164.94 3.209.94 1.922 0 4.459-1.285 8.734-10.628-3.936-2.646-5.631-5.518-5.631-9.47zm-11.103-13.902c-.553 0-1-.447-1-1 0-6.296 5.279-11 10-11 .553 0 1 .448 1 1 0 5.666-5.634 11-10 11zm1.065-2.132c2.939-.698 6.265-4.075 6.846-7.757-2.932.582-6.335 3.407-6.846 7.757z" id="path-1" class="cls-2" fill-rule="evenodd"/></svg>