<svg xmlns="http://www.w3.org/2000/svg" viewBox="0 0 44 44" enable-background="new 0 0 44 44"><path fill-rule="evenodd" clip-rule="evenodd" d="M37 33h-18c-.6 0-1 .4-1 1s.4 1 1 1h18c.6 0 1-.4 1-1s-.4-1-1-1zm0-12h-18c-.6 0-1 .4-1 1s.4 1 1 1h18c.6 0 1-.4 1-1s-.4-1-1-1zm3-21h-36c-2.2 0-4 1.8-4 4v36c0 2.2 1.8 4 4 4h36c2.2 0 4-1.8 4-4v-36c0-2.2-1.8-4-4-4zm2 40c0 1.1-.9 2-2 2h-36c-1.1 0-2-.9-2-2v-36c0-1.1.9-2 2-2h36c1.1 0 2 .9 2 2v36zm-5-31h-18c-.6 0-1 .4-1 1s.4 1 1 1h18c.6 0 1-.4 1-1s-.4-1-1-1z" enable-background="new"/><path fill-rule="evenodd" clip-rule="evenodd" fill="#44B6F0" d="M7.3 14l2.7-2 2.7 2-1.1-3.3 2.4-1.8h-2.9l-1.1-2.9-1.1 2.9h-2.9l2.4 1.8-1.1 3.3zm2.7 4l-1.1 2.9h-2.9l2.4 1.8-1.1 3.3 2.7-2 2.7 2-1.1-3.3 2.4-1.8h-2.9l-1.1-2.9zm1.1 14.9l-1.1-2.9-1.1 2.9h-2.9l2.4 1.8-1.1 3.3 2.7-2 2.7 2-1.1-3.3 2.4-1.8h-2.9z" enable-background="new"/></svg>