<?xml version="1.0" encoding="utf-8"?>
<!-- Generator: Adobe Illustrator 18.1.1, SVG Export Plug-In . SVG Version: 6.00 Build 0)  -->
<svg version="1.1" xmlns="http://www.w3.org/2000/svg" xmlns:xlink="http://www.w3.org/1999/xlink" x="0px" y="0px"
	 viewBox="0 0 44 44" enable-background="new 0 0 44 44" xml:space="preserve">
<g id="Shape_28_1_" enable-background="new    ">
	<g id="Shape_28">
		<g>
			<path fill-rule="evenodd" clip-rule="evenodd" d="M37,33H19c-0.6,0-1,0.4-1,1c0,0.6,0.4,1,1,1h18c0.6,0,1-0.4,1-1
				C38,33.4,37.6,33,37,33z M37,21H19c-0.6,0-1,0.4-1,1c0,0.6,0.4,1,1,1h18c0.6,0,1-0.4,1-1C38,21.4,37.6,21,37,21z M40,0H4
				C1.8,0,0,1.8,0,4v36c0,2.2,1.8,4,4,4h36c2.2,0,4-1.8,4-4V4C44,1.8,42.2,0,40,0z M42,40c0,1.1-0.9,2-2,2H4c-1.1,0-2-0.9-2-2V4
				c0-1.1,0.9-2,2-2h36c1.1,0,2,0.9,2,2V40z M37,9H19c-0.6,0-1,0.4-1,1c0,0.6,0.4,1,1,1h18c0.6,0,1-0.4,1-1C38,9.4,37.6,9,37,9z"/>
		</g>
	</g>
</g>
<g id="Color_Fill_5_1_" enable-background="new    ">
	<g id="Color_Fill_5">
		<g>
			<path fill-rule="evenodd" clip-rule="evenodd" fill="#44B6F0" d="M7.3,14l2.7-2l2.7,2l-1.1-3.3L14,8.9h-2.9L10,6L8.9,8.9H6
				l2.4,1.8L7.3,14z M10,18l-1.1,2.9H6l2.4,1.8L7.3,26l2.7-2l2.7,2l-1.1-3.3l2.4-1.8h-2.9L10,18z M11.1,32.9L10,30l-1.1,2.9H6
				l2.4,1.8L7.3,38l2.7-2l2.7,2l-1.1-3.3l2.4-1.8H11.1z"/>
		</g>
	</g>
</g>
</svg>
