<svg xmlns="http://www.w3.org/2000/svg" width="105" height="23" viewBox="0 0 105 23"><path fill-rule="evenodd" clip-rule="evenodd" fill="#4F7AB0" d="M35.75 13.889l-3.115-8.291-3.795-.004 5.653 13.032 2.526.048 5.656-13.097-3.712.007-3.213 8.305zm9.363 4.703h3.56v-13.03l-3.56.048v12.982zm11.625-12.976l-5.646 12.961 3.728.086.604-1.43h5.145l.576 1.39h3.707l-5.577-13.007h-2.537zm-.379 9.141l1.619-4.27 1.644 4.243-3.263.027zm20.852-3.326c-1.531-1.026-4.784-.717-4.784-.717s-1.599.185-2.397-.144c-.405-.167-.297-.966-.297-.966s-.07-.831.266-.993c.727-.35 2.191-.19 2.191-.19s1.352-.164 2.104.087c.395.131.434.758.434.758l3.371-.286s-.447-2.157-1.705-2.915c-1.634-.983-4.177-.628-4.177-.628s-3.273-.237-5.027.962c-1.065.729-.972 3.14-.972 3.14s-.168 2.414.946 3.101c1.775 1.095 5.152.659 5.152.659s1.295-.096 1.966.223c.449.214.365 1.017.365 1.017s.078.741-.334.933c-.738.344-2.17.23-2.17.23s-1.307.071-2.033-.185c-.453-.159-.475-.665-.475-.665l-3.372.132s.213 2.151 1.478 2.932c1.654 1.021 4.466.734 4.466.734s3.134.241 4.747-.876c1.336-.926 1.203-3.247 1.203-3.247s.169-2.348-.946-3.096zm14.918-5.824v3.199h4.723v9.808h3.652v-9.924h4.635v-3.083h-13.01zm-7.195.009l-5.645 12.961 3.727.086.604-1.43h5.146l.575 1.39h3.707l-5.577-13.007h-2.537zm-.378 9.141l1.618-4.27 1.645 4.243-3.263.027z" enable-background="new"/><g enable-background="new"><linearGradient id="a" gradientUnits="userSpaceOnUse" x1="12.344" y1="9.781" x2="12.344" y2=".25"><stop offset="0" stop-color="#6BA0D2"/><stop offset="1" stop-color="#86BED6"/></linearGradient><ellipse fill-rule="evenodd" clip-rule="evenodd" fill="url(#a)" cx="12.344" cy="5.016" rx="7.969" ry="4.766"/></g><g enable-background="new"><linearGradient id="b" gradientUnits="userSpaceOnUse" x1="12.348" y1="18.69" x2="12.348" y2="-.041"><stop offset=".06" stop-color="#979CA0"/><stop offset=".86" stop-color="#fff"/></linearGradient><path fill-rule="evenodd" clip-rule="evenodd" fill="url(#b)" d="M15.673-.005l-.119-.036-3.376 9.154-3.177-9.111-.189.061c-4.001 1.337-6.86 4.875-6.86 9.029 0 5.301 4.655 9.599 10.396 9.599s10.396-4.298 10.396-9.599c0-4.228-2.96-7.817-7.071-9.097z"/></g><g enable-background="new"><linearGradient id="c" gradientUnits="userSpaceOnUse" x1="12.155" y1="23.014" x2="12.155" y2="1.908"><stop offset=".22" stop-color="#3B6191"/><stop offset=".93" stop-color="#558ACE"/></linearGradient><path fill-rule="evenodd" clip-rule="evenodd" fill="url(#c)" d="M20.519 2.282l-.13-.116-6.178 13.724-3.818.007-6.169-13.99-.119.1c-2.589 2.194-4.226 5.43-4.226 9.037 0 6.61 5.496 11.97 12.275 11.97s12.275-5.359 12.275-11.97c.001-3.46-1.504-6.576-3.91-8.762z"/></g></svg>