<svg xmlns="http://www.w3.org/2000/svg" preserveAspectRatio="xMidYMid" width="24" height="18" viewBox="0 0 24 18"><defs><style>.cls-2 { fill: #ffffff; }</style></defs><path d="M21.5 18h-19c-1.378 0-2.5-1.122-2.5-2.5v-13c0-1.378 1.122-2.5 2.5-2.5h19c1.378 0 2.5 1.122 2.5 2.5v13c0 1.378-1.122 2.5-2.5 2.5zm1.5-15.5c0-.827-.673-1.5-1.5-1.5h-19c-.827 0-1.5.673-1.5 1.5v13c0 .827.673 1.5 1.5 1.5h19c.827 0 1.5-.673 1.5-1.5v-13zm-2.147 12.353c-.097.098-.225.147-.353.147-.128 0-.256-.049-.354-.147l-4.911-4.911-.368.397c-.707.769-1.637 1.193-2.617 1.193s-1.91-.424-2.618-1.194l-.37-.4-5.426 4.932c-.096.087-.216.13-.336.13-.136 0-.271-.055-.37-.164-.186-.204-.171-.52.034-.706l5.42-4.927-4.951-5.364c-.188-.203-.175-.519.028-.706.203-.188.519-.175.706.028l6 6.5c.517.562 1.186.871 1.883.871.697 0 1.366-.309 1.882-.87l6.001-6.501c.187-.203.503-.216.706-.028.203.187.216.503.028.706l-4.954 5.367 4.94 4.94c.196.196.196.512 0 .707z" id="path-1" class="cls-2" fill-rule="evenodd"/></svg>