<?xml version="1.0" encoding="utf-8"?>
<!-- Generator: Adobe Illustrator 18.1.1, SVG Export Plug-In . SVG Version: 6.00 Build 0)  -->
<svg version="1.1" xmlns="http://www.w3.org/2000/svg" xmlns:xlink="http://www.w3.org/1999/xlink" x="0px" y="0px"
	 viewBox="0 0 45 36" enable-background="new 0 0 45 36" xml:space="preserve">
<g id="Shape_19_copy_1_" enable-background="new    ">
	<g id="Shape_19_copy">
		<g>
			<path fill-rule="evenodd" clip-rule="evenodd" d="M8.1,4.8C6.5,5.5,5.8,6.2,4.8,8.6C4,10.7,5,12.9,5.5,14.1
				c-0.6,2.6,0.2,3.5,0.2,3.5C6.2,18.1,7,19,7,21.6C7,24.5,4.7,25,4.7,25c-1.8,0.6-4.2,2-4.2,6c0,0,0,1,1,1L6,32
				c0.2-0.7,0.6-1.4,0.9-2l-4.3,0c0.3-1.9,1.5-2.6,2.8-3.1C6.7,26.6,9,25,9,21.6c0-3.1-1-4.4-1.5-5.2l-0.1-0.1c0,0,0,0,0,0
				c0-0.1-0.2-0.7,0.1-1.8c0.1-0.4,0-0.9-0.1-1.3c-0.4-0.9-1.2-2.5-0.6-3.8c0.9-2.1,1.2-2.3,2.2-2.7c0.1,0,0.2-0.1,0.3-0.1
				C9.4,6.4,10.4,6,11.5,6c0.5,0,0.9,0.1,1.2,0.3c0.1-0.3,0.2-0.7,0.3-1c0.1-0.3,0.3-0.6,0.4-0.8c-0.6-0.3-1.3-0.4-2-0.4
				C10,4,8.7,4.5,8.1,4.8z M40.3,25c0,0-2.2-0.5-2.2-3.4c0-2.6,0.8-3.5,1.2-4.1c0,0,0.9-0.9,0.2-3.5c0.5-1.1,1.6-3.4,0.7-5.4
				c-1-2.5-1.7-3.1-3.3-3.8C36.3,4.5,35,4,33.5,4c-0.7,0-1.4,0.1-2,0.4c0.3,0.6,0.5,1.3,0.6,1.9c0,0,0.1,0,0.1,0
				C32.5,6.1,33,6,33.5,6c1,0,2,0.4,2.3,0.5c0.1,0.1,0.2,0.1,0.3,0.1c1,0.4,1.4,0.6,2.2,2.7c0.5,1.2-0.2,2.9-0.6,3.8
				c-0.2,0.4-0.2,0.9-0.1,1.3c0.3,1.1,0.1,1.6,0.1,1.8c0,0,0,0,0,0l-0.1,0.1C37,17.2,36,18.5,36,21.6c0,3.4,2.3,5,3.7,5.3
				c1.3,0.5,2.5,1.2,2.8,3.1l-4.3,0c0.4,0.6,0.7,1.3,0.9,2l4.5,0c1,0,1-1,1-1C44.5,27,42.1,25.6,40.3,25z"/>
		</g>
	</g>
</g>
<g id="Shape_19_1_" enable-background="new    ">
	<g id="Shape_19">
		<g>
			<path fill-rule="evenodd" clip-rule="evenodd" fill="#44B6F0" d="M30.5,27.2c0,0-3.6-0.9-3.6-4.6c0-3.3,1.5-4.4,2-5.2
				c0,0,1.2-1,0.4-4.3c1.3-1.8,1.7-4.8,0.1-8.4c-0.9-2.1-1.7-3.3-2.9-4C25.7,0.2,24.7,0,23.7,0c-1.8,0-3.5,0.6-4.2,1.1
				c-2,0.9-3.3,1.7-4.6,4.9c-1.1,2.6,0.2,5.5,0.8,7c-0.8,3.3,0.3,4.4,0.3,4.4c0.6,0.8,2,2,2,5.2c0,3.7-3.6,4.6-3.6,4.6
				c-2.3,0.8-7,2.4-7,7.8c0,0,0,1,1,1h28c1,0,1-1,1-1C37.5,29.6,32.7,28,30.5,27.2z M9.6,34c0.5-2.8,2.9-3.9,5.5-4.8l0.1,0
				c1.8-0.5,5-2.4,5-6.5c0-3.5-1.4-5.2-2.2-6.1c-0.2-0.2-0.3-0.4-0.3-0.4c-0.1-0.1-0.4-0.9,0.1-2.7c0.2-0.9-0.1-1.3-0.1-1.3
				C17,10.8,16,8.6,16.8,6.7c1-2.6,1.9-3.1,3.6-3.8c0.1,0,0.2-0.1,0.3-0.1C20.9,2.6,22.2,2,23.7,2c0.7,0,1.4,0.1,1.9,0.4
				c0.6,0.3,1.2,1,2,3c1.6,3.7,0.6,5.7,0.1,6.4c-0.3,0.5-0.5,1.1-0.3,1.6c0.4,1.7,0.1,2.4,0.1,2.5c0,0-0.3,0.3-0.4,0.5
				c-0.8,0.9-2.2,2.6-2.2,6.1c0,4.1,3.2,6,5,6.5l0.1,0c2.5,0.9,5,2,5.5,4.8H9.6z"/>
		</g>
	</g>
</g>
</svg>
