<svg xmlns="http://www.w3.org/2000/svg" viewBox="0 0 45 36" enable-background="new 0 0 45 36"><path fill-rule="evenodd" clip-rule="evenodd" d="M8.1 4.8c-1.6.7-2.3 1.4-3.3 3.8-.8 2.1.2 4.3.7 5.5-.6 2.6.2 3.5.2 3.5.5.5 1.3 1.4 1.3 4 0 2.9-2.3 3.4-2.3 3.4-1.8.6-4.2 2-4.2 6 0 0 0 1 1 1h4.5c.2-.7.6-1.4.9-2h-4.3c.3-1.9 1.5-2.6 2.8-3.1 1.3-.3 3.6-1.9 3.6-5.3 0-3.1-1-4.4-1.5-5.2l-.1-.1c0-.1-.2-.7.1-1.8.1-.4 0-.9-.1-1.3-.4-.9-1.2-2.5-.6-3.8.9-2.1 1.2-2.3 2.2-2.7l.3-.1c.1-.2 1.1-.6 2.2-.6.5 0 .9.1 1.2.3l.3-1c.1-.3.3-.6.4-.8-.6-.3-1.3-.4-2-.4-1.4-.1-2.7.4-3.3.7zm32.2 20.2s-2.2-.5-2.2-3.4c0-2.6.8-3.5 1.2-4.1 0 0 .9-.9.2-3.5.5-1.1 1.6-3.4.7-5.4-1-2.5-1.7-3.1-3.3-3.8-.6-.3-1.9-.8-3.4-.8-.7 0-1.4.1-2 .4.3.6.5 1.3.6 1.9h.1c.3-.2.8-.3 1.3-.3 1 0 2 .4 2.3.5.1.1.2.1.3.1 1 .4 1.4.6 2.2 2.7.5 1.2-.2 2.9-.6 3.8-.2.4-.2.9-.1 1.3.3 1.1.1 1.6.1 1.8l-.1.1c-.6.9-1.6 2.2-1.6 5.3 0 3.4 2.3 5 3.7 5.3 1.3.5 2.5 1.2 2.8 3.1h-4.3c.4.6.7 1.3.9 2h4.5c1 0 1-1 1-1-.1-4-2.5-5.4-4.3-6z" enable-background="new"/><path fill-rule="evenodd" clip-rule="evenodd" fill="#44B6F0" d="M30.5 27.2s-3.6-.9-3.6-4.6c0-3.3 1.5-4.4 2-5.2 0 0 1.2-1 .4-4.3 1.3-1.8 1.7-4.8.1-8.4-.9-2.1-1.7-3.3-2.9-4-.8-.5-1.8-.7-2.8-.7-1.8 0-3.5.6-4.2 1.1-2 .9-3.3 1.7-4.6 4.9-1.1 2.6.2 5.5.8 7-.8 3.3.3 4.4.3 4.4.6.8 2 2 2 5.2 0 3.7-3.6 4.6-3.6 4.6-2.3.8-7 2.4-7 7.8 0 0 0 1 1 1h28c1 0 1-1 1-1 .1-5.4-4.7-7-6.9-7.8zm-20.9 6.8c.5-2.8 2.9-3.9 5.5-4.8h.1c1.8-.5 5-2.4 5-6.5 0-3.5-1.4-5.2-2.2-6.1-.2-.2-.3-.4-.3-.4-.1-.1-.4-.9.1-2.7.2-.9-.1-1.3-.1-1.3-.7-1.4-1.7-3.6-.9-5.5 1-2.6 1.9-3.1 3.6-3.8l.3-.1c.2-.2 1.5-.8 3-.8.7 0 1.4.1 1.9.4.6.3 1.2 1 2 3 1.6 3.7.6 5.7.1 6.4-.3.5-.5 1.1-.3 1.6.4 1.7.1 2.4.1 2.5 0 0-.3.3-.4.5-.8.9-2.2 2.6-2.2 6.1 0 4.1 3.2 6 5 6.5h.1c2.5.9 5 2 5.5 4.8h-25.9z" enable-background="new"/></svg>