<svg xmlns="http://www.w3.org/2000/svg" preserveAspectRatio="xMidYMid" width="45" height="36" viewBox="0 0 45 36"><defs><style>.cls-2 { fill: #c1c9cf; }</style></defs><path d="M17.009 6h10c.553 0 1-.447 1-1 0-.552-.447-1-1-1h-10c-.553 0-1 .448-1 1 0 .553.447 1 1 1m5 8c-3.314 0-6 2.686-6 6 0 3.313 2.686 6 6 6 3.312 0 6-2.687 6-6 0-3.314-2.688-6-6-6m0 10c-2.209 0-4-1.791-4-4s1.791-4 4-4 4 1.791 4 4-1.791 4-4 4m0-14c-5.523 0-10 4.477-10 10s4.477 10 10 10 10-4.477 10-10-4.477-10-10-10m0 18c-4.418 0-8-3.581-8-8 0-4.418 3.582-8 8-8s8 3.582 8 8c0 4.419-3.582 8-8 8m15-12c-.553 0-1 .448-1 1 0 .553.447 1 1 1 .553 0 1-.447 1-1 0-.552-.447-1-1-1m0-8c-1.656 0-3 1.344-3 3 0 1.657 1.344 3 3 3s3-1.343 3-3c0-1.656-1.344-3-3-3m0 4c-.553 0-1-.447-1-1 0-.552.447-1 1-1 .553 0 1 .448 1 1 0 .553-.447 1-1 1m3-8h-4c-3 0-3-4-7-4h-14c-4 0-4 4-7 4h-4c-2.209 0-4 1.791-4 4v24c0 2.209 1.791 4 4 4h36c2.209 0 4-1.791 4-4v-24c0-2.209-1.791-4-4-4m2 20h-8.697c-.248.699-.555 1.368-.921 2h9.618v6c0 1.103-.897 2-2 2h-36c-1.104 0-2-.897-2-2v-6h9.619c-.367-.632-.674-1.301-.922-2h-8.697v-16c0-1.104.896-2 2-2h4c4 0 4-4 7-4h14c3 0 3 4 7 4h4c1.103 0 2 .896 2 2v16z" id="path-1" class="cls-2" fill-rule="evenodd"/></svg>