<svg xmlns="http://www.w3.org/2000/svg" preserveAspectRatio="xMidYMid" width="34" height="34" viewBox="0 0 34 34"><defs><style>.cls-2 { fill: #ffffff; }</style></defs><path d="M16.984 33.969c-9.365 0-16.984-7.62-16.984-16.985 0-9.365 7.619-16.984 16.984-16.984 9.365 0 16.985 7.619 16.985 16.984 0 9.365-7.62 16.985-16.985 16.985zm0-30.95c-7.7 0-13.965 6.265-13.965 13.965 0 7.701 6.265 13.965 13.965 13.965 7.701 0 13.965-6.264 13.965-13.965 0-7.7-6.264-13.965-13.965-13.965zm2.703 20.404c-.295.295-.681.442-1.068.442-.386 0-.772-.147-1.067-.442l-5.875-5.876c-.59-.589-.59-1.545 0-2.134l5.875-5.876c.59-.589 1.545-.589 2.135 0 .59.59.59 1.546 0 2.135l-4.808 4.808 4.808 4.808c.59.59.59 1.545 0 2.135z" id="path-1" class="cls-2" fill-rule="evenodd"/></svg>