<svg xmlns="http://www.w3.org/2000/svg" viewBox="0 0 44 36" enable-background="new 0 0 44 36"><path fill-rule="evenodd" clip-rule="evenodd" d="M7 22h-6c-.6 0-1 .4-1 1v12c0 .6.4 1 1 1h6c.6 0 1-.4 1-1v-12c0-.6-.4-1-1-1zm-1 12h-4v-10h4v10zm13-25h-6c-.6 0-1 .4-1 1v25c0 .6.4 1 1 1h6c.6 0 1-.4 1-1v-25c0-.6-.4-1-1-1zm-1 25h-4v-23h4v23zm13-18h-6c-.6 0-1 .4-1 1v18c0 .6.4 1 1 1h6c.6 0 1-.4 1-1v-18c0-.6-.4-1-1-1zm-1 18h-4v-16h4v16z" enable-background="new"/><path fill-rule="evenodd" clip-rule="evenodd" fill="#44B6F0" d="M43 0h-6c-.6 0-1 .4-1 1v34c0 .6.4 1 1 1h6c.6 0 1-.4 1-1v-34c0-.6-.4-1-1-1zm-1 34h-4v-32h4v32z" enable-background="new"/></svg>