<?xml version="1.0" encoding="utf-8"?>
<!-- Generator: Adobe Illustrator 18.1.1, SVG Export Plug-In . SVG Version: 6.00 Build 0)  -->
<svg version="1.1" xmlns="http://www.w3.org/2000/svg" xmlns:xlink="http://www.w3.org/1999/xlink" x="0px" y="0px"
	 viewBox="0 0 44 44" enable-background="new 0 0 44 44" xml:space="preserve">
<g id="Shape_26_1_" enable-background="new    ">
	<g id="Shape_26">
		<g>
			<path fill-rule="evenodd" clip-rule="evenodd" d="M4,10h2V8H4V10z M4,6h2V4H4V6z M6,26H4v2h2V26z M4,18h2v-2H4V18z M6,30H4v2h2
				V30z M6,34H4v2h2V34z M6,38H4v2h2V38z M4,14h2v-2H4V14z M38,10h2V8h-2V10z M38,6h2V4h-2V6z M40,0H4C1.8,0,0,1.8,0,4v36
				c0,2.2,1.8,4,4,4h36c2.2,0,4-1.8,4-4V4C44,1.8,42.2,0,40,0z M8,42H4c-1.1,0-2-0.9-2-2V23h6V42z M8,21H2V4c0-1.1,0.9-2,2-2h4V21z
				 M34,42H10V2h24V42z M42,40c0,1.1-0.9,2-2,2h-4V23h6V40z M42,21h-6V2h4c1.1,0,2,0.9,2,2V21z M38,14h2v-2h-2V14z M38,18h2v-2h-2
				V18z M40,34h-2v2h2V34z M40,30h-2v2h2V30z M40,38h-2v2h2V38z M40,26h-2v2h2V26z"/>
		</g>
	</g>
</g>
<g id="Color_Fill_3_1_" enable-background="new    ">
	<g id="Color_Fill_3">
		<g>
			<path fill-rule="evenodd" clip-rule="evenodd" fill="#44B6F0" d="M29,22c0-0.3-0.2-0.6-0.4-0.8l0,0l-11-7l0,0
				C17.5,14.1,17.2,14,17,14c-0.6,0-1,0.4-1,1v14c0,0.6,0.4,1,1,1c0.2,0,0.4-0.1,0.6-0.2l0,0l11-7l0,0C28.9,22.6,29,22.3,29,22z
				 M18,27.2V16.8l8.1,5.2L18,27.2z"/>
		</g>
	</g>
</g>
</svg>
