<svg xmlns="http://www.w3.org/2000/svg" viewBox="0 0 44 44" enable-background="new 0 0 44 44"><path fill-rule="evenodd" clip-rule="evenodd" d="M4 10h2v-2h-2v2zm0-4h2v-2h-2v2zm2 20h-2v2h2v-2zm-2-8h2v-2h-2v2zm2 12h-2v2h2v-2zm0 4h-2v2h2v-2zm0 4h-2v2h2v-2zm-2-24h2v-2h-2v2zm34-4h2v-2h-2v2zm0-4h2v-2h-2v2zm2-6h-36c-2.2 0-4 1.8-4 4v36c0 2.2 1.8 4 4 4h36c2.2 0 4-1.8 4-4v-36c0-2.2-1.8-4-4-4zm-32 42h-4c-1.1 0-2-.9-2-2v-17h6v19zm0-21h-6v-17c0-1.1.9-2 2-2h4v19zm26 21h-24v-40h24v40zm8-2c0 1.1-.9 2-2 2h-4v-19h6v17zm0-19h-6v-19h4c1.1 0 2 .9 2 2v17zm-4-7h2v-2h-2v2zm0 4h2v-2h-2v2zm2 16h-2v2h2v-2zm0-4h-2v2h2v-2zm0 8h-2v2h2v-2zm0-12h-2v2h2v-2z" enable-background="new"/><path fill-rule="evenodd" clip-rule="evenodd" fill="#44B6F0" d="M29 22c0-.3-.2-.6-.4-.8l-11-7c-.1-.1-.4-.2-.6-.2-.6 0-1 .4-1 1v14c0 .6.4 1 1 1 .2 0 .4-.1.6-.2l11-7c.3-.2.4-.5.4-.8zm-11 5.2v-10.4l8.1 5.2-8.1 5.2z" enable-background="new"/></svg>