<svg xmlns="http://www.w3.org/2000/svg" viewBox="0 0 40 46" enable-background="new 0 0 40 46"><path d="M4 7c.6 0 1-.4 1-1v-5c0-.6-.4-1-1-1s-1 .4-1 1v5c0 .6.4 1 1 1zm32 0c.6 0 1-.4 1-1v-5c0-.6-.4-1-1-1s-1 .4-1 1v5c0 .6.4 1 1 1zm3 21h-2v-9c0-.6-.4-1-1-1s-1 .4-1 1v9h-30v-9c0-.6-.4-1-1-1s-1 .4-1 1v9h-2c-.6 0-1 .4-1 1s.4 1 1 1h5.7l11.4 7.3-10.6 6.9c-.5.3-.6.9-.3 1.4.1.2.5.4.8.4.2 0 .4-.1.5-.2l11.5-7.3 11.5 7.3c.2.1.4.2.5.2.3 0 .7-.2.8-.5.3-.5.2-1.1-.3-1.4l-10.7-6.8 11.5-7.3h5.7c.6 0 1-.4 1-1s-.4-1-1-1zm-19 8.1l-9.6-6.1h19.2l-9.6 6.1z" enable-background="new"/><path fill-rule="evenodd" clip-rule="evenodd" fill="#44B6F0" d="M38 6h-36c-.6 0-1 .4-1 1v12c0 .6.4 1 1 1h36c.6 0 1-.4 1-1v-12c0-.6-.4-1-1-1zm-1 12h-34v-10h34v10z" enable-background="new"/></svg>