<svg xmlns="http://www.w3.org/2000/svg" preserveAspectRatio="xMidYMid" width="46" height="44" viewBox="0 0 46 44"><defs><style>.cls-2 { fill: #9ba9b0; }</style></defs><path d="M44.206 35.26l-.092.105-8.411 8.345c-.194.193-.449.29-.704.29-.255 0-.51-.097-.704-.291l-8.405-8.344-.089-.101c-1.162-1.141-1.8-2.649-1.8-4.265 0-3.309 2.691-6 6-6 2.085 0 3.925 1.069 5.001 2.686 1.076-1.617 2.915-2.686 5-2.686 3.307 0 5.997 2.692 5.997 6.001 0 1.617-.635 3.123-1.793 4.26zm-4.204-8.261c-2.206 0-4 1.794-4 4 0 .552-.447 1-1 1-.553 0-1-.448-1-1 0-2.206-1.795-4-4.001-4-2.206 0-4 1.794-4 4 0 1.111.457 2.148 1.287 2.921l.123.138 7.588 7.534 7.594-7.535.127-.141c.825-.769 1.279-1.804 1.279-2.916 0-2.206-1.793-4.001-3.997-4.001zm.972-21.345l-4.589 4.551c-.106.105-.244.158-.384.158-.139 0-.277-.053-.384-.158l-4.584-4.551-.048-.055c-.634-.623-.982-1.445-.982-2.326 0-1.805 1.468-3.273 3.273-3.273 1.137 0 2.14.583 2.727 1.465.587-.882 1.59-1.465 2.727-1.465 1.804 0 3.271 1.469 3.271 3.273 0 .882-.346 1.703-.978 2.323l-.049.058zm-2.244-3.654c-.426 0-.823.214-1.062.573l-1.665 2.502-1.665-2.502c-.239-.359-.636-.573-1.062-.573-.702 0-1.273.571-1.273 1.273 0 .342.132.652.383.898l.111.109.024.032 3.481 3.456 3.461-3.434.023-.031.136-.134c.248-.244.379-.553.379-.896 0-.702-.57-1.273-1.271-1.273zm-24.695 19.916c0-1.059.887-1.916 1.981-1.916s1.982.857 1.982 1.916c0 1.057-.888 1.914-1.982 1.914-1.094 0-1.981-.857-1.981-1.914zm7.035 9.082c.085.678.252 1.336.503 1.962l-.521.04c-3.23 0-6.198-1.993-7.938-5.331l1.774-.924c1.389 2.664 3.693 4.255 6.164 4.255l.018-.002zm3.95-10.998c1.094 0 1.981.857 1.981 1.916 0 1.057-.887 1.914-1.981 1.914-1.095 0-1.981-.857-1.981-1.914 0-1.059.886-1.916 1.981-1.916zm5.978-7.074c2.692 2.46 4.483 5.892 4.813 9.742-.647.281-1.256.645-1.809 1.089l-.142-.105c-.079-3.395-1.478-6.465-3.694-8.732-.631.998-1.65 2.08-3.165 2.08-.88 0-1.579-.165-2.14-.297-.897-.211-.968-.181-1.153.004-.74.741-1.506 1.041-2.325 1.041-.872 0-1.804-.341-2.829-.854-1.029-.514-1.644-1.063-2.012-1.546l-1.094.546c-2.047 1.025-4.047.355-4.679.094-1.728 2.199-2.768 4.963-2.768 7.97 0 7.133 5.804 12.936 12.937 12.936 1.118 0 2.197-.157 3.232-.424l1.617 1.604c-1.522.523-3.149.82-4.849.82-8.249 0-14.937-6.687-14.937-14.936 0-8.25 6.688-14.938 14.937-14.938 3.362 0 6.458 1.116 8.952 2.991.14-.016.284-.008.427.04.394.132.652.485.681.875zm-10.06-1.906c-3.324 0-6.35 1.271-8.644 3.34.601.118 1.437.157 2.26-.255l2-1c.309-.154.677-.138.973.044.267.166.44.447.47.757.027.081.247.597 1.451 1.199 1.925.963 2.335.698 2.846.188 1.012-1.013 2.13-.75 3.027-.537.508.12 1.032.244 1.68.244.679 0 1.26-.747 1.634-1.413-2.152-1.605-4.81-2.567-7.697-2.567zm-9.966-1.366l-4.589 4.551c-.106.105-.244.158-.384.158-.139 0-.277-.053-.384-.158l-4.584-4.551-.048-.055c-.634-.623-.982-1.445-.982-2.326 0-1.805 1.468-3.273 3.273-3.273 1.137 0 2.14.583 2.727 1.465.587-.882 1.59-1.465 2.727-1.465 1.804 0 3.271 1.469 3.271 3.273 0 .882-.346 1.703-.978 2.323l-.049.058zm-2.244-3.654c-.426 0-.823.214-1.062.573l-1.665 2.502-1.665-2.502c-.239-.359-.636-.573-1.062-.573-.702 0-1.273.571-1.273 1.273 0 .342.132.652.383.898l.111.109.024.032 3.48 3.457 3.462-3.435.023-.031.136-.134c.248-.244.379-.553.379-.896 0-.702-.57-1.273-1.271-1.273z" id="path-1" class="cls-2" fill-rule="evenodd"/></svg>