<svg xmlns="http://www.w3.org/2000/svg" viewBox="0 0 44 36" enable-background="new 0 0 44 36"><path fill-rule="evenodd" clip-rule="evenodd" fill="#44B6F0" d="M32 16c0-.3-.2-.6-.4-.8l-.2-.1h-.1l-13.7-7.9c-.2-.1-.4-.2-.6-.2-.6 0-1 .4-1 1v16c0 .6.4 1 1 1 .2 0 .4-.1.6-.2l13.7-7.9h.1l.2-.1c.2-.2.4-.5.4-.8zm-14 6.3v-12.6l11 6.3-11 6.3z" enable-background="new"/><path fill-rule="evenodd" clip-rule="evenodd" d="M40 0h-36c-2.2 0-4 1.8-4 4v24c0 2.2 1.8 4 4 4h4v3c0 .6.4 1 1 1s1-.4 1-1v-1h24v1c0 .6.4 1 1 1s1-.4 1-1v-3h4c2.2 0 4-1.8 4-4v-24c0-2.2-1.8-4-4-4zm2 28c0 1.1-.9 2-2 2h-36c-1.1 0-2-.9-2-2v-24c0-1.1.9-2 2-2h36c1.1 0 2 .9 2 2v24z" enable-background="new"/></svg>