<svg xmlns="http://www.w3.org/2000/svg" preserveAspectRatio="xMidYMid" width="44" height="42" viewBox="0 0 44 42"><defs><style>.cls-2 { fill: #d1d5d7; }</style></defs><path d="M43 41.999l-.11-.005-18-2c-.507-.057-.89-.485-.89-.995v-15.367c0-.268.108-.526.3-.714.192-.188.428-.298.72-.286 8.003.164 12.004.248 18.007.41.541.015.973.458.973 1v16.957c0 .285-.121.556-.333.746-.185.165-.422.254-.667.254zm-17-3.895l16 1.778v-14.866c-5.225-.139-9.094-.222-16-.363v13.451zm-6 .895l-.147-.01-3.934-.577c-5.674-.83-10.155-1.485-15.107-2.43-.471-.09-.812-.503-.812-.983v-12c0-.27.109-.528.303-.716.194-.189.459-.286.725-.284 2.712.077 5.254.253 7.947.44 3.335.231 6.782.471 11.046.56.544.012.979.457.979 1v14c0 .291-.127.568-.347.757-.182.158-.415.243-.653.243zm-18-4.829c4.595.857 8.872 1.483 14.209 2.262l2.791.41v-11.866c-3.866-.104-7.064-.326-10.164-.542-2.325-.161-4.539-.314-6.836-.401v10.137zm18-14.171h-19c-.553 0-1-.447-1-1v-12c0-.492.358-.911.844-.987l19-3c.295-.049.583.037.805.228.223.189.351.467.351.759v15c0 .553-.447 1-1 1zm-18-2h17v-12.83l-17 2.685v10.145zm23 2c-.262 0-.513-.267-.7-.451-.192-.187-.3-.609-.3-.878v-14.671c0-.489.353-.906.836-.986l18-3c.29-.045.587.033.81.224.225.189.354.469.354.762v17.264c0 .542-.432.985-.973 1-5.73.155-9.636.401-16.943.549l-1.064.187h-.02zm1-15.153v13.153h.043c6.88 0 10.743-.571 15.957-.71v-15.109l-16 2.666z" id="path-1" class="cls-2" fill-rule="evenodd"/></svg>